# xmcd
# 
# Track frame offsets:
#     150
#     21792
#     45647
#     64797
#     81175
#     97447
#     113415
#     131185
#     151400
#     172557
#     198117
# 
# Disc length: 2949
# 
# Revision: 24
# Processed by: cddbd v1.5.2PL0 Copyright (c) Steve Scherf et al.
# Submitted via: fre:ac v1.0.17
# 
DISCID=870b830b
DTITLE=Quiet Riot - Quiet Riot: Greatest Hits
DYEAR=1996
DGENRE=Heavy Metal
TTITLE0=Cum on Feel the Noize
TTITLE1=Bang Your Head (Metal Health)
TTITLE2=Slick Black Cadillac
TTITLE3=The Wild and the Young
TTITLE4=Mama Weer All Crazee Now
TTITLE5=Party All Night
TTITLE6=The Joker
TTITLE7=Stay with Me Tonight
TTITLE8=Callin' the Shots
TTITLE9=Bang Your Head (Metal Health) (Live)
TTITLE10=Let's Go Crazy (Live)
EXTD=
EXTT0=
EXTT1=
EXTT2=
EXTT3=
EXTT4=
EXTT5=
EXTT6=
EXTT7=
EXTT8=
EXTT9=
EXTT10=
PLAYORDER=
